inDegrees=yes
name=ik_S50_A02_T02
DataType=double
version=3
OpenSimVersion=4.3-2021-08-27-4bc7ad9
endheader
time	pelvis_tilt	pelvis_list	pelvis_rotation	pelvis_tx	pelvis_ty	pelvis_tz	hip_flexion_r	hip_adduction_r	hip_rotation_r	knee_angle_r	knee_angle_r_beta	ankle_angle_r	subtalar_angle_r	mtp_angle_r	hip_flexion_l	hip_adduction_l	hip_rotation_l	knee_angle_l	knee_angle_l_beta	ankle_angle_l	subtalar_angle_l	mtp_angle_l	lumbar_extension	lumbar_bending	lumbar_rotation	arm_flex_r	arm_add_r	arm_rot_r	elbow_flex_r	pro_sup_r	wrist_flex_r	wrist_dev_r	arm_flex_l	arm_add_l	arm_rot_l	elbow_flex_l	pro_sup_l	wrist_flex_l	wrist_dev_l
0	0	0	0	0	0.9399999999999999	0	0	0	0	0	0	0	0	0	0	0	0	0	0	0	0	0	0	0	0	0	0	0	0	89.99999999963507	0	0	0	0	0	0	89.99999999869995	0	0
0.02	-0.2582840768037221	2.774103098061592	90.09773027034562	0	0.9399999999999999	0	-1.778505372590785	-3.237500936509604	-5.418414722631766	0.9165842813586417	0.01599741358173438	0	0	0	-2.202874448494632	-2.102305381011693	-2.760025011012893	0.04827592952497869	0.0008425739196716202	0	0	0	0	0	0	1.872148341945552	-1.872148341945552	0.333056290784556	9.206679017069748	89.6669437284156	0	0	1.872148341945552	-1.872148341945552	0.333056290784556	9.206679017069748	89.66694372754309	0	0
0.04	-0.3000383942747169	2.756380318736973	90.15455758232136	0	0.9399999999999999	0	-1.712257197145001	-3.28046691067865	-5.445246111039197	0.9739512095567211	0.01699865536054605	0	0	0	-2.172934966150888	-2.060613225453158	-2.700634483983964	0.04255364306505559	0.0007427011802036716	0	0	0	0	0	0	2.045281905295561	-2.045281905295561	0.3649021800052613	9.581123209697079	89.63509784106577	0	0	2.045281905295561	-2.045281905295561	0.3649021800052613	9.581123209697079	89.63509784019922	0	0
0.06	-0.2938142426894935	2.764095776225417	90.17085314488739	0	0.9399999999999999	0	-1.7191549898284	-3.27185331903432	-5.456872891258247	0.9651198992314364	0.01684451991810446	0	0	0	-2.129526860754738	-2.069582906690701	-2.612593455767883	0.02724971286239445	0.0004755972096718316	0	0	0	0	0	0	2.227711279109973	-2.227711279109973	0.3983286611082003	9.97200736502799	89.60167136192464	0	0	2.227711279109973	-2.227711279109973	0.3983286611082003	9.97200736502799	89.60167136106435	0	0
0.08	-0.3111977444957537	2.782639412802123	90.20833481453884	0	0.9399999999999999	0	-1.677772997776281	-3.300378645705183	-5.412047428052799	0.9821000995397057	0.01714088032113191	0	0	0	-2.112271689034483	-2.063429154296284	-2.55763084052855	0.03571028627749849	0.0006232620723720981	0	0	0	0	0	0	2.397705986033059	-2.397705986033059	0.429484095657673	10.36905546548188	89.57051592920412	0	0	2.397705986033059	-2.397705986033059	0.429484095657673	10.36905546548188	89.57051592834966	0	0
0.1	-0.3057132164987449	2.781622964824144	90.22897487806769	0	0.9399999999999999	0	-1.649078520490179	-3.30415535280202	-5.421167970672411	0.9642102895487392	0.01682864423423337	0	0	0	-2.077972230822474	-2.06829391513371	-2.541202066210393	0.0363096525707116	0.0006337229876141406	0	0	0	0	0	0	3.129125590029135	-3.129125590029134	0.5631063899974041	12.87631342196414	89.43689364270458	0	0	3.129125590029135	-3.129125590029134	0.5631063899974041	12.87631342196414	89.43689364187512	0	0
0.12	-0.3155113171196358	2.759209746808116	90.27798950268364	0	0.9399999999999999	0	-1.593681916241425	-3.326479909425049	-5.468457595380969	0.9812811614945086	0.01712658715587338	0	0	0	-2.031664560982616	-2.082318294500685	-2.51193231911811	0.03192452131828366	0.0005571880091271705	0	0	0	0	0	0	3.271022260897595	-3.271022260897594	0.5889842847395838	13.26986249363825	89.41101574948044	0	0	3.271022260897595	-3.271022260897594	0.5889842847395838	13.26986249363825	89.41101574865584	0	0
0.14	-0.3138296664734475	2.752489435390202	90.29624513909216	0	0.9399999999999999	0	-1.567799361979632	-3.33309325686667	-5.483612129614211	0.9762348377240198	0.01703851219095669	0	0	0	-1.990873839022449	-2.087482882378345	-2.547245302346171	0.04390499709011916	0.0007662867573011089	0	0	0	0	0	0	3.4190342667408	-3.419034266740799	0.6158845644181304	13.6732553722562	89.38411547137856	0	0	3.4190342667408	-3.419034266740799	0.6158845644181304	13.6732553722562	89.38411547055902	0	0
0.16	-0.3225685046119184	2.774143907906519	90.33730438820048	0	0.9399999999999999	0	-1.548105723897183	-3.364738359174679	-5.559806968808721	0.9627454773776322	0.01680307843892426	0	0	0	-1.954705775858297	-2.10353399373453	-2.684483223568155	0.06139576104388729	0.001071558176983504	0	0	0	0	0	0	3.420438441548068	-3.420438441548067	0.6161531378516505	13.68294329907219	89.38384689796104	0	0	3.420438441548068	-3.420438441548067	0.6161531378516505	13.68294329907219	89.38384689714152	0	0
0.18	-0.3252453825730787	2.75155547325106	90.34076110552431	0	0.9399999999999999	0	-1.50700468618852	-3.370300621478396	-5.565975138880624	0.9218142810409341	0.01608869429606864	0	0	0	-1.866923682399074	-2.109895065341407	-2.735818906330332	0.1780693359223552	0.003107896208684912	0	0	0	0	0	0	3.961647829680418	-3.96164782968042	0.7144714267729383	15.4688188739273	89.28552861480296	0	0	3.961647829680418	-3.96164782968042	0.7144714267729383	15.4688188739273	89.28552861400185	0	0
0.2	-0.3413159598691354	2.736449472004441	90.35850938786167	0	0.9399999999999999	0	-1.471991348137834	-3.387924702426465	-5.604764440640918	0.9132195260099832	0.0159386875223762	0	0	0	-1.811409031405776	-2.079908337605537	-2.739099110711091	0.2274153412566599	0.003969146474475214	0	0	0	0	0	0	4.497466618637475	-4.497466618637477	0.8107600669435315	17.17556538438016	89.18923998026237	0	0	4.497466618637475	-4.497466618637477	0.8107600669435315	17.17556538438016	89.18923997947924	0	0
0.22	-0.3387769962354343	2.759084453902183	90.35821072449944	0	0.9399999999999999	0	-1.44601462297299	-3.394742093265437	-5.594653491234317	0.9583832812003238	0.01672694375301232	0	0	0	-1.824302148719451	-2.07504429148085	-2.739488417064279	0.2320529856643841	0.004050088638926704	0	0	0	0	0	0	4.540957236839769	-4.540957236839771	0.8186754653049512	17.3442179293998	89.18132458236551	0	0	4.540957236839769	-4.540957236839771	0.8186754653049512	17.3442179293998	89.18132458158385	0	0
0.24	-0.3397616079579661	2.780472357676816	90.36867519791535	0	0.9399999999999999	0	-1.452950195129584	-3.396803730568809	-5.616404406523948	0.9416270167863741	0.01643449176865414	0	0	0	-1.826822480825049	-2.052228985294908	-2.789072287620869	0.2456664952020019	0.004287689203109786	0	0	0	0	0	0	4.692727532521367	-4.692727532521369	0.8458809669659096	17.81849852250297	89.1541190822946	0	0	4.692727532521367	-4.692727532521369	0.8458809669659096	17.81849852250297	89.15411908151808	0	0
0.26	-0.3441219667621965	2.82008791872419	90.35187203193749	0	0.9399999999999999	0	-1.434890082499764	-3.409717687378247	-5.602819313286915	1.010138202675963	0.01763023753687335	0	0	0	-1.856006471817437	-2.061152635717109	-2.80653459460608	0.2865572043869994	0.005001366711863478	0	0	0	0	0	0	4.735515362196903	-4.735515362196905	0.8536782497002626	17.98857229404173	89.14632180001803	0	0	4.735515362196903	-4.735515362196905	0.8536782497002626	17.98857229404173	89.14632179924297	0	0
0.28	-0.3366447302587475	2.823758988658971	90.30458570094844	0	0.9399999999999999	0	-1.33948984314353	-3.406838309074574	-5.580139365094376	1.058000979494961	0.01846560058151207	0	0	0	-1.76036995055144	-2.023342844631236	-3.090101853431654	0.384520497523558	0.006711148723192789	0	0	0	0	0	0	4.739587086229649	-4.73958708622965	0.8544488933710261	18.01311859746069	89.14555115639297	0	0	4.739587086229649	-4.73958708622965	0.8544488933710261	18.01311859746069	89.14555115561805	0	0
0.3	-0.3385177216423036	2.818280697713012	90.2595799450788	0	0.9399999999999999	0	-1.209349080504526	-3.422496399607062	-5.64076530946339	1.227339694723591	0.02142111871334873	0	0	0	-1.638382029161417	-1.990155186338089	-3.266301800102034	0.6067423006775022	0.01058965085794784	0	0	0	0	0	0	4.745954449836451	-4.745954449836453	0.8556483616253093	18.05085092685719	89.1443516882098	0	0	4.745954449836451	-4.745954449836453	0.8556483616253093	18.05085092685719	89.14435168743508	0	0
0.32	-0.336224300074735	2.853391379346691	90.15120782492916	0	0.9399999999999999	0	-1.083212322921313	-3.439190557704631	-5.626853285533307	1.42424291855063	0.02485772827692191	0	0	0	-1.541472333733506	-1.914176518519659	-3.508468730122915	0.7905215276763528	0.01379720346584783	0	0	0	0	0	0	4.751602017182167	-4.751602017182169	0.8567133022394872	18.08440236921795	89.14328674765875	0	0	4.751602017182167	-4.751602017182169	0.8567133022394872	18.08440236921795	89.1432867468842	0	0
0.34	-0.3278678774827632	2.926322476198676	90.05886943526539	0	0.9399999999999999	0	-0.9197898517714717	-3.456076410207074	-5.618275075115547	1.707526410739824	0.02980195793217099	0	0	0	-1.451811524335912	-1.845593591852791	-3.692434797374669	1.036851790721667	0.01809647760329229	0	0	0	0	0	0	4.757103659291527	-4.757103659291529	0.8577518491223731	18.11717674559327	89.14224820083743	0	0	4.757103659291527	-4.757103659291529	0.8577518491223731	18.11717674559327	89.14224820006304	0	0
0.36	-0.3348657681843334	3.019422533331873	89.99699309860992	0	0.9399999999999999	0	-0.5403821646868828	-3.494196964805294	-5.917144030647798	2.281815810543776	0.03982519881805204	0	0	0	-1.350815716401886	-1.791621574895427	-3.781857724497741	1.294174285906109	0.02258760238370805	0	0	0	0	0	0	4.763383692010258	-4.76338369201026	0.8589405111453651	18.1548964016611	89.14105953888492	0	0	4.763383692010258	-4.76338369201026	0.8589405111453651	18.1548964016611	89.14105953811075	0	0
0.3800000000000001	-0.3834962548986295	3.171378886239399	89.83925069504687	0	0.9399999999999999	0	-0.4357458614239064	-3.561192445585987	-5.879731329562453	2.571231295030372	0.0448764519285977	0	0	0	-1.102045891206702	-1.61707719779426	-4.04342222734868	1.699518758142461	0.02966219802899114	0	0	0	0	0	0	4.768686653593549	-4.768686653593551	0.8599419520501447	18.18646690859736	89.14005809803947	0	0	4.768686653593549	-4.768686653593551	0.8599419520501447	18.18646690859736	89.14005809726554	0	0
0.4000000000000001	-0.3655105605686977	3.371529944009431	89.75122325126304	0	0.9399999999999999	0	-0.3686546388479308	-3.54486580215584	-5.889294862599776	2.861196245881345	0.04993729503633071	0	0	0	-1.289340025438699	-1.639414769399385	-4.10797580159475	1.824145255710001	0.03183734074677341	0	0	0	0	0	0	4.774369674040746	-4.774369674040748	0.8610157358528352	18.22032692670662	89.13898431430043	0	0	4.774369674040746	-4.774369674040748	0.8610157358528352	18.22032692670662	89.13898431352672	0	0
0.4200000000000001	-0.3931933226967301	3.4477988185098	89.6607191292379	0	0.9399999999999999	0	-0.1385647376526467	-3.571657723307054	-5.843067871294243	3.125060954538338	0.05454260298221083	0	0	0	-1.144312097948582	-1.532858812070999	-4.250469051272064	2.017221041300898	0.03520714891120919	0	0	0	0	0	0	4.780246565138944	-4.780246565138945	0.8621264383423032	18.25534296358745	89.13787361187687	0	0	4.780246565138944	-4.780246565138945	0.8621264383423032	18.25534296358745	89.13787361110327	0	0
0.4400000000000001	-0.3999516498942535	3.870509151686047	89.42050240279957	0	0.9399999999999999	0	-0.2361777791196757	-3.536132672821663	-5.610082397371982	3.327816919289134	0.05808136214516979	0	0	0	-1.34142619471355	-1.434487237542199	-4.436397062668878	2.247597255302144	0.03922797236381	0	0	0	0	0	0	4.783556686709888	-4.78355668670989	0.8627493005422466	18.27474782433799	89.13725074971384	0	0	4.783556686709888	-4.78355668670989	0.8627493005422466	18.27474782433799	89.13725074894032	0	0
